<svg width="483" height="439" viewBox="0 0 483 439" fill="none" xmlns="http://www.w3.org/2000/svg">
<g id="undraw_Co_working_re_y4cx 1" clip-path="url(#clip0)">
<path id="Vector" d="M483 219.5C483.065 260.472 471.617 300.636 449.962 335.408C449.213 336.612 448.447 337.811 447.675 338.999C446.242 341.205 444.771 343.383 443.261 345.535C443.261 345.54 443.256 345.54 443.25 345.546C442.348 346.837 441.424 348.118 440.494 349.388C439.301 351.008 438.087 352.618 436.851 354.2C436.714 354.38 436.572 354.561 436.43 354.742C434.269 357.506 432.043 360.215 429.751 362.87C429.505 363.16 429.253 363.445 428.996 363.735C428.608 364.189 428.208 364.638 427.809 365.087C415.864 378.578 402.307 390.548 387.442 400.727C385.462 402.09 383.456 403.417 381.425 404.707C380.922 405.029 380.418 405.347 379.91 405.664C379.757 405.768 379.603 405.862 379.45 405.955C378.909 406.294 378.367 406.633 377.82 406.962C376.732 407.63 375.632 408.286 374.533 408.932C373.98 409.261 373.428 409.578 372.87 409.896C372.866 409.901 372.862 409.906 372.856 409.91C372.85 409.914 372.844 409.916 372.837 409.918L372.826 409.923C371.443 410.722 370.053 411.505 368.647 412.266C366.142 413.634 363.612 414.954 361.055 416.223C360.421 416.541 359.781 416.853 359.141 417.165C357.013 418.2 354.869 419.196 352.708 420.154C334.474 428.274 315.209 433.844 295.456 436.706C292.311 437.166 289.147 437.557 285.966 437.878C284.751 437.998 283.537 438.113 282.323 438.212C281.819 438.256 281.311 438.294 280.807 438.332C275.146 438.781 269.43 439.004 263.66 439C257.375 439 251.154 438.737 244.996 438.212C243.689 438.102 242.384 437.982 241.08 437.85C239.023 437.642 236.976 437.403 234.937 437.133C233.909 437.002 232.884 436.86 231.863 436.706C220.694 435.092 209.667 432.605 198.886 429.268C192.776 427.385 186.783 425.242 180.906 422.841C179.03 422.075 177.16 421.281 175.311 420.466C173.582 419.705 171.867 418.92 170.164 418.112C170.11 418.095 170.058 418.071 170.011 418.041C169.633 417.866 169.256 417.685 168.878 417.504C159.494 413 150.443 407.828 141.797 402.03C139.024 400.174 136.298 398.257 133.62 396.277C131.459 394.684 129.33 393.051 127.231 391.378C116.776 383.062 107.1 373.809 98.323 363.735C97.7049 363.029 97.0978 362.323 96.4906 361.611C96.0202 361.058 95.5553 360.506 95.0958 359.947C92.6344 357.002 90.255 353.992 87.9577 350.915C87.6404 350.494 87.3286 350.067 87.0169 349.64C85.5509 347.664 84.1233 345.659 82.734 343.624C81.6838 342.097 80.6536 340.555 79.6435 338.999C54.5017 300.202 42.2404 254.452 44.6075 208.271C46.9745 162.091 63.8492 117.836 92.8258 81.8171C94.1441 80.1805 95.486 78.5639 96.8516 76.9673C137.077 29.8597 196.884 3.05176e-05 263.66 3.05176e-05C341.73 3.05176e-05 410.278 40.8183 449.141 102.295C451.165 105.48 453.102 108.725 454.95 112.027C473.398 144.834 483.06 181.855 483 219.5Z" fill="url(#paint0_linear)"/>
<path id="Vector_2" d="M80.1709 141.767C80.1564 142.213 80.1418 142.66 80.1347 143.112C79.9702 149.116 80.2935 155.124 81.1012 161.075C81.1563 161.536 81.2192 162.003 81.2874 162.462C83.3862 176.78 88.123 190.583 95.2571 203.171C98.1006 208.177 101.32 212.96 104.889 217.477C109.818 223.716 115.657 230.087 118.165 237.376C118.435 238.134 118.658 238.907 118.833 239.693L95.3642 273.361C95.2725 273.411 95.1882 273.466 95.0962 273.516L94.2206 274.903C94.0203 274.683 93.8173 274.451 93.617 274.23C93.5002 274.103 93.3887 273.969 93.272 273.841C93.1958 273.754 93.1199 273.667 93.0462 273.592C93.0208 273.563 92.9956 273.534 92.9777 273.51C92.904 273.436 92.8435 273.359 92.7774 273.29C91.639 271.993 90.5077 270.686 89.3836 269.368C89.3759 269.363 89.3759 269.363 89.3734 269.35C80.8335 259.289 73.0579 248.426 67.1772 236.727C67.0004 236.375 66.8156 236.018 66.6495 235.65C64.028 230.362 61.8427 224.868 60.1155 219.224C59.1797 216.13 58.401 212.991 57.7824 209.819C56.1997 201.618 55.9158 193.22 56.9411 184.931C58.9873 168.408 66.2913 152.724 79.1787 142.536C79.5085 142.275 79.8333 142.022 80.1709 141.767Z" fill="#E6E6E6"/>
<path id="Vector_3" d="M80.5452 142.141C72.2683 161.026 69.9667 182.679 74.4394 202.84C75.4064 207.199 76.7664 211.537 79.0478 215.399C81.3005 219.147 84.5149 222.222 88.3571 224.306C91.9005 226.321 95.7583 227.972 98.7505 230.814C101.905 233.81 103.329 237.919 103.244 242.224C103.139 247.491 101.15 252.406 99.0373 257.145C96.6919 262.407 94.1725 267.835 94.3693 273.73C94.3932 274.444 93.2842 274.44 93.2604 273.726C92.9179 263.469 100.27 255.177 101.851 245.322C102.589 240.723 101.946 235.874 98.6933 232.337C95.8492 229.243 91.8725 227.538 88.2671 225.528C84.4813 223.419 81.2525 220.802 78.8403 217.158C76.3728 213.432 74.8405 209.138 73.7664 204.823C71.4037 195.021 70.5958 184.907 71.3725 174.853C72.1953 163.373 74.9744 152.119 79.5894 141.577C79.8753 140.925 80.8291 141.493 80.5451 142.141L80.5452 142.141Z" fill="white"/>
<path id="Vector_4" d="M72.64 196.364C69.1245 196.637 65.6264 195.65 62.7705 193.58C59.9147 191.511 57.887 188.493 57.0496 185.065C56.8825 184.371 57.9525 184.078 58.1198 184.773C58.8937 187.967 60.7828 190.778 63.4461 192.7C66.1095 194.622 69.3716 195.528 72.6437 195.254C73.3548 195.195 73.3471 196.305 72.64 196.364Z" fill="white"/>
<path id="Vector_5" d="M86.4259 223.521C91.162 218.083 93.676 211.059 93.4667 203.849C93.4454 203.134 94.5543 203.139 94.5756 203.852C94.7794 211.356 92.1484 218.661 87.2074 224.309C86.7361 224.847 85.9572 224.056 86.4259 223.521L86.4259 223.521Z" fill="white"/>
<path id="Vector_6" d="M73.4995 164.053C74.8817 164.231 76.2865 164.063 77.5876 163.563C78.8888 163.064 80.0456 162.248 80.9542 161.191C81.4184 160.647 82.1969 161.438 81.7357 161.978C80.7265 163.142 79.4478 164.041 78.0114 164.596C76.575 165.151 75.0247 165.345 73.4958 165.163C73.3502 165.158 73.2121 165.097 73.1095 164.994C73.0068 164.89 72.9474 164.752 72.9432 164.606C72.9444 164.459 73.0035 164.319 73.1077 164.215C73.2118 164.111 73.3526 164.053 73.4995 164.053V164.053Z" fill="white"/>
<g id="center-leaves">
<path id="Vector_7" d="M294.562 144.012C297.822 125.968 292.404 105.493 277.613 94.6683C278.564 114.587 272.444 134.199 260.336 150.037C255.645 156.128 249.793 162.413 250.02 170.1C250.162 174.883 252.773 179.325 256.2 182.662C259.626 186 263.837 188.396 267.998 190.755L268.649 191.756C280.725 177.964 291.301 162.057 294.562 144.012Z" fill="#E6E6E6"/>
<path id="Vector_8" d="M277.347 94.9455C283.615 108.766 285.372 124.213 282.368 139.09C281.778 142.304 280.686 145.405 279.131 148.279C277.526 151.029 275.214 153.3 272.436 154.854C269.875 156.355 267.081 157.593 264.929 159.691C263.844 160.782 263.001 162.089 262.455 163.529C261.91 164.968 261.675 166.506 261.765 168.043C261.891 171.877 263.387 175.438 264.97 178.869C266.728 182.678 268.614 186.607 268.526 190.902C268.516 191.422 269.323 191.408 269.334 190.889C269.486 183.416 264.053 177.447 262.809 170.286C262.228 166.944 262.65 163.406 264.985 160.8C267.027 158.52 269.907 157.24 272.513 155.743C275.246 154.267 277.575 152.143 279.299 149.558C280.995 146.773 282.205 143.719 282.877 140.528C284.504 133.367 284.997 125.994 284.336 118.68C283.628 110.328 281.498 102.159 278.037 94.5262C277.823 94.0539 277.134 94.4762 277.347 94.9454L277.347 94.9455Z" fill="white"/>
<path id="Vector_9" d="M283.617 134.356C286.18 134.522 288.718 133.77 290.778 132.236C292.838 130.702 294.286 128.485 294.863 125.98C294.978 125.473 294.196 125.271 294.081 125.778C293.548 128.111 292.199 130.176 290.277 131.601C288.356 133.026 285.989 133.717 283.604 133.548C283.085 133.512 283.101 134.321 283.617 134.356L283.617 134.356Z" fill="white"/>
<path id="Vector_10" d="M273.835 154.264C270.335 150.349 268.437 145.257 268.522 140.005C268.53 139.484 267.723 139.498 267.714 140.018C267.637 145.484 269.622 150.778 273.274 154.844C273.622 155.232 274.182 154.649 273.835 154.264L273.835 154.264Z" fill="white"/>
<path id="Vector_11" d="M282.685 110.835C281.68 110.978 280.656 110.869 279.703 110.517C278.751 110.166 277.901 109.583 277.229 108.822C276.886 108.43 276.327 109.014 276.668 109.403C277.414 110.24 278.353 110.883 279.404 111.273C280.456 111.664 281.587 111.791 282.698 111.644C282.804 111.638 282.904 111.593 282.978 111.517C283.052 111.441 283.094 111.339 283.095 111.233C283.093 111.126 283.049 111.024 282.972 110.95C282.895 110.875 282.792 110.834 282.685 110.835L282.685 110.835Z" fill="white"/>
<path id="Vector_12" d="M217.477 109.929C217.684 110.18 217.891 110.431 218.097 110.688C220.868 114.071 223.359 117.674 225.546 121.461C225.72 121.751 225.892 122.048 226.057 122.342C231.23 131.522 234.655 141.584 236.158 152.015C236.752 156.166 237.03 160.357 236.988 164.551C236.931 170.342 236.409 176.617 238.214 181.933C238.396 182.489 238.612 183.034 238.861 183.564L267.378 192.473C267.453 192.461 267.527 192.455 267.602 192.443L268.724 192.851C268.741 192.635 268.755 192.41 268.772 192.194C268.782 192.069 268.786 191.941 268.797 191.816C268.802 191.732 268.807 191.648 268.816 191.572C268.818 191.544 268.819 191.516 268.819 191.494C268.828 191.418 268.829 191.347 268.836 191.278C268.913 190.023 268.982 188.766 269.042 187.505C269.044 187.499 269.044 187.499 269.04 187.49C269.472 177.886 269.107 168.161 267.279 158.801C267.224 158.519 267.171 158.231 267.103 157.946C266.256 153.731 265.065 149.593 263.544 145.572C262.704 143.374 261.754 141.219 260.696 139.116C257.952 133.689 254.373 128.727 250.088 124.412C241.546 115.813 230.351 110.043 218.391 109.929C218.085 109.926 217.785 109.926 217.477 109.929Z" fill="#E6E6E6"/>
<path id="Vector_13" d="M217.428 110.312C230.748 117.571 241.443 128.845 247.996 142.533C249.459 145.455 250.452 148.589 250.94 151.82C251.313 154.983 250.833 158.189 249.55 161.104C248.408 163.845 246.923 166.517 246.466 169.489C246.256 171.014 246.369 172.566 246.8 174.044C247.23 175.521 247.968 176.891 248.965 178.063C251.372 181.049 254.708 182.991 258.036 184.777C261.732 186.759 265.602 188.76 268.116 192.242C268.42 192.664 269.057 192.166 268.752 191.745C264.378 185.687 256.45 184.194 251.147 179.226C248.673 176.907 246.882 173.828 247.178 170.34C247.437 167.29 248.966 164.533 250.146 161.767C251.44 158.942 252.022 155.843 251.843 152.741C251.522 149.495 250.651 146.328 249.267 143.375C246.258 136.676 242.216 130.493 237.288 125.051C231.698 118.809 225.082 113.57 217.727 109.561C217.272 109.313 216.975 110.065 217.428 110.312L217.428 110.312Z" fill="white"/>
<path id="Vector_14" d="M246.145 138.001C248.291 136.589 249.865 134.46 250.587 131.994C251.309 129.528 251.131 126.885 250.085 124.538C249.872 124.063 249.126 124.373 249.339 124.848C250.317 127.031 250.482 129.493 249.805 131.788C249.129 134.084 247.654 136.061 245.648 137.364C245.213 137.648 245.712 138.283 246.145 138.001L246.145 138.001Z" fill="white"/>
<path id="Vector_15" d="M250.312 159.79C245.162 158.773 240.584 155.851 237.491 151.606C237.185 151.185 236.548 151.683 236.854 152.103C240.081 156.514 244.851 159.545 250.213 160.592C250.724 160.691 250.82 159.889 250.312 159.79V159.79Z" fill="white"/>
<path id="Vector_16" d="M231.25 119.783C230.534 120.502 229.65 121.032 228.678 121.325C227.706 121.618 226.677 121.665 225.683 121.462C225.173 121.356 225.077 122.159 225.584 122.264C226.683 122.484 227.82 122.43 228.894 122.109C229.969 121.787 230.948 121.207 231.747 120.42C231.828 120.352 231.881 120.255 231.894 120.15C231.907 120.045 231.879 119.938 231.817 119.853C231.751 119.769 231.654 119.714 231.548 119.701C231.442 119.688 231.335 119.717 231.25 119.783H231.25Z" fill="white"/>
</g>
<path id="Vector_17" d="M71.805 206.919C75.753 206.919 79.5393 208.488 82.331 211.282C85.1226 214.075 86.691 217.864 86.691 221.815V221.815C86.6904 225.271 85.4896 228.619 83.294 231.286C81.0984 233.954 78.0447 235.774 74.6555 236.436V260.801H65.1538V206.919H71.805Z" fill="#3F3D56"/>
<path id="Vector_18" d="M436.432 349.642V354.744C434.271 357.508 432.045 360.218 429.753 362.872C429.507 363.162 429.255 363.447 428.998 363.737C428.61 364.192 428.21 364.64 427.811 365.089V349.642H436.432Z" fill="#CACACA"/>
<path id="Vector_19" d="M411.139 339.001C409.234 339.003 407.407 339.762 406.059 341.11C404.712 342.459 403.954 344.287 403.952 346.194V356.545C403.954 358.452 404.712 360.28 406.059 361.628C407.407 362.976 409.234 363.735 411.139 363.737H428.998C429.255 363.447 429.507 363.162 429.753 362.872C432.045 360.218 434.271 357.508 436.432 354.744C436.574 354.563 436.716 354.382 436.853 354.202C438.089 352.62 439.303 351.011 440.496 349.39C441.426 348.12 442.35 346.84 443.253 345.548C443.258 345.542 443.263 345.542 443.263 345.537C444.773 343.391 446.245 341.212 447.678 339.001H411.139Z" fill="#3F3D56"/>
<path id="Vector_20" d="M457.124 250.402C456.026 250.023 454.872 249.83 453.711 249.833H450.774C449.704 249.833 448.64 249.994 447.617 250.309C445.461 250.987 443.576 252.336 442.238 254.159C440.899 255.982 440.176 258.184 440.173 260.446V346.796C440.173 347.119 440.189 347.436 440.217 347.748C440.264 348.302 440.358 348.852 440.496 349.39C441.426 348.12 442.35 346.84 443.253 345.548C443.258 345.542 443.263 345.542 443.263 345.537C444.773 343.391 446.245 341.212 447.678 339.001C448.449 337.813 449.215 336.614 449.964 335.41C455.379 326.716 460.175 317.651 464.317 308.282V260.446C464.314 258.231 463.62 256.071 462.33 254.27C461.04 252.469 459.22 251.116 457.124 250.402V250.402Z" fill="#3F3D56"/>
<path id="Vector_21" d="M95.0979 349.642V359.949C92.6365 357.004 90.2571 353.994 87.9598 350.918C87.6425 350.496 87.3308 350.069 87.019 349.642H95.0979Z" fill="#CACACA"/>
<path id="Vector_22" d="M111.77 339.001H79.6456C80.6575 340.561 81.6877 342.103 82.7361 343.626C84.1254 345.657 85.5531 347.662 87.019 349.642C87.3307 350.069 87.6425 350.496 87.9598 350.918C90.2626 353.994 92.6419 357.004 95.0979 359.949C95.5574 360.508 96.0223 361.061 96.4927 361.613C97.0944 362.325 97.7052 363.033 98.3251 363.737H111.77C113.675 363.735 115.501 362.976 116.848 361.628C118.194 360.279 118.951 358.451 118.952 356.545V346.194C118.951 344.287 118.194 342.459 116.848 341.111C115.501 339.762 113.675 339.004 111.77 339.001V339.001Z" fill="#3F3D56"/>
<path id="Vector_23" d="M77.0311 251.031C75.5167 250.245 73.836 249.834 72.1301 249.833H69.1983C67.811 249.831 66.4371 250.104 65.1561 250.637C63.2154 251.44 61.556 252.8 60.3876 254.546C59.2193 256.292 58.5945 258.345 58.5923 260.446V297.542C64.1152 312.073 71.173 325.971 79.6457 339.001C80.6576 340.561 81.6877 342.103 82.7361 343.626V260.446C82.7347 258.505 82.2022 256.602 81.1965 254.942C80.1908 253.282 78.7503 251.93 77.0311 251.031V251.031Z" fill="#3F3D56"/>
<path id="Vector_24" d="M196.527 411.35L206.163 409.138L202.221 370.891L188 374.157L196.527 411.35Z" fill="#9E616A"/>
<path id="Vector_25" d="M205.293 378.166C205.096 377.492 204.962 376.801 204.894 376.103C204.814 375.277 204.652 374.461 204.412 373.667C204.139 372.944 203.8 372.248 203.4 371.587C203.209 371.236 203.007 370.886 202.826 370.53C202.644 370.175 202.487 369.807 202.356 369.43C196.716 352.762 188.845 330.112 183.386 316.854C180.176 309.054 160.43 306.459 141.799 305.797C139.529 305.715 137.276 305.66 135.071 305.633C134.311 305.622 133.556 305.611 132.807 305.605C130.892 305.594 129.027 305.594 127.233 305.616C126.998 305.616 126.763 305.616 126.527 305.622C125.22 305.633 123.953 305.651 122.726 305.676C114.291 305.841 108.094 306.224 106.989 306.295L97.149 300.104L95.2291 298.894L95.0267 300.104L93.4788 309.333L90.8369 325.081L97.4608 326.942L101.76 328.146L127.233 335.295L132.648 336.817L132.681 336.828L141.799 336.812L166.731 336.768L167.934 339.959C167.502 340.631 167.218 341.386 167.1 342.177C166.983 342.967 167.034 343.773 167.252 344.541C167.47 345.309 167.849 346.023 168.364 346.633C168.878 347.244 169.517 347.738 170.237 348.082L171.172 348.525L182.566 378.697C182.601 381.426 183.453 384.082 185.011 386.322C185.202 386.601 185.41 386.875 185.629 387.143L185.881 387.444L190.262 396.022L192.871 395.42L203.975 392.874L204.03 392.765C204.035 392.748 204.177 392.447 204.385 391.922V391.905C205.255 389.732 207.18 383.793 205.293 378.166Z" fill="#2F2E41"/>
<path id="Vector_26" d="M232.363 413.894C231.948 412.055 231.174 410.317 230.085 408.779C228.996 407.241 227.614 405.933 226.018 404.932C224.422 403.931 222.644 403.255 220.787 402.945C218.929 402.634 217.028 402.694 215.194 403.121L207.497 399.645L205.342 401.162L196.405 407.435L195.666 407.604L193.27 408.152L196.58 422.586L232.473 414.348L232.363 413.894Z" fill="#2F2E41"/>
<path id="Vector_27" d="M184.754 391.637L181.499 418.043L181.39 418.908L180.909 422.843C179.032 422.077 177.162 421.283 175.313 420.468C173.584 419.707 171.869 418.922 170.166 418.114V391.643L184.754 391.637Z" fill="#9E616A"/>
<path id="Vector_28" d="M114.131 210.108C125.028 210.108 133.862 201.267 133.862 190.362C133.862 179.457 125.028 170.616 114.131 170.616C103.233 170.616 94.3991 179.457 94.3991 190.362C94.3991 201.267 103.233 210.108 114.131 210.108Z" fill="#9E616A"/>
<path id="Vector_29" d="M186.849 401.715C186.302 400.965 185.733 400.182 185.7 399.432C185.574 396.788 185.443 394.172 185.306 391.61C185.208 389.82 185.109 388.052 185.011 386.322C185 386.103 184.984 385.884 184.973 385.671C184.803 382.808 185.651 379.786 186.466 376.858C186.734 375.9 187.002 374.931 187.243 373.962C187.844 371.803 188.097 369.562 187.992 367.323C186.592 349.593 180.334 332.92 177.528 330.112C173.262 325.842 153.97 315.978 141.799 309.979C139.639 308.912 137.702 307.97 136.116 307.204C134.71 306.519 133.578 305.978 132.807 305.605C132.216 305.326 131.833 305.146 131.702 305.08L131.636 305.047L127.233 305.54L126.528 305.622L122.644 306.06L97.3788 308.895L93.4788 309.333L87.9598 309.957L82.9768 310.515L82.7908 310.532L82.758 310.718C82.758 310.723 82.7471 310.762 82.7361 310.833C81.8792 316.244 81.8792 321.756 82.7361 327.167C83.3816 330.84 84.6013 334.573 86.7674 337.715C87.0627 338.142 87.3691 338.552 87.6973 338.946C87.7084 338.967 87.7232 338.986 87.741 339.001C87.8121 339.089 87.8832 339.176 87.9598 339.264V339.269C90.4374 342.153 93.7631 344.178 97.4609 345.055C98.0079 345.203 98.5658 345.323 99.1401 345.422C105.261 346.506 112.175 347.502 118.952 348.378C121.758 348.739 124.542 349.078 127.233 349.396C132.621 350.031 137.653 350.567 141.799 350.994C147.608 351.585 151.689 351.952 152.597 352.029L162.743 399.399C161.947 400.747 161.629 402.324 161.842 403.875C162.054 405.427 162.785 406.86 163.914 407.944L164.745 408.748L165.708 413.259L168.88 417.507L169.28 418.043H183.277L183.354 417.95C183.403 417.884 188.326 411.557 187.992 404.019C187.959 403.242 187.418 402.503 186.849 401.715Z" fill="#2F2E41"/>
<g id="man-right-arm">
<path id="Vector_30" d="M186.467 242.955C185.407 242.665 184.296 242.611 183.213 242.797C182.13 242.983 181.101 243.404 180.198 244.031C179.296 244.658 178.541 245.476 177.988 246.426C177.436 247.377 177.098 248.437 176.999 249.532L160.604 254.66L161.288 265.39L184.339 257.823C186.188 257.868 187.99 257.232 189.402 256.036C190.815 254.84 191.74 253.168 192.002 251.335C192.264 249.502 191.846 247.637 190.825 246.092C189.805 244.548 188.254 243.431 186.467 242.955V242.955Z" fill="#9E616A"/>
<path id="Vector_31" d="M175.77 260.711L163.517 265.352L163.204 265.96C162.832 266.682 162.321 267.324 161.701 267.849C161.082 268.373 160.365 268.771 159.591 269.018C158.818 269.266 158.004 269.358 157.195 269.291C156.386 269.223 155.598 268.997 154.877 268.625V268.625L127.336 279.056C127.336 279.056 115.037 266.739 106.28 255.747L109.264 237.377C109.956 233.115 111.425 229.017 113.598 225.287C131.556 229.227 141.865 254.35 141.865 254.35L174.23 248.17L175.77 260.711Z" fill="#6C63FF"/>
</g>
<path id="Vector_32" d="M111.327 209.052C106.387 210.387 100.941 208.612 97.086 205.245C93.231 201.878 90.8195 197.107 89.4301 192.179C88.4125 188.57 87.93 184.564 89.5358 181.176C91.1416 177.787 95.4635 175.501 98.7979 177.213C96.7409 174.814 97.7685 170.848 100.171 168.796C102.573 166.745 105.872 166.156 109.014 165.835C113.573 165.368 118.283 165.316 122.622 166.794C126.961 168.273 130.903 171.504 132.261 175.885C133.648 176.532 135.21 176.699 136.702 176.362C138.194 176.025 139.533 175.202 140.508 174.022C140.759 175.377 140.557 176.777 139.933 178.006C139.309 179.235 138.298 180.223 137.056 180.819L143.704 178.662C144.848 181.084 142.844 184.081 140.282 184.857C137.721 185.632 134.955 184.785 132.524 183.664C130.093 182.544 127.737 181.127 125.096 180.69C122.456 180.253 119.354 181.102 118.133 183.486C117.493 184.734 117.46 186.196 117.088 187.549C116.717 188.901 115.776 190.304 114.378 190.414C113.495 190.484 112.631 190.014 111.75 190.11C111.21 190.216 110.713 190.478 110.319 190.863C109.925 191.249 109.652 191.74 109.533 192.278C109.314 193.358 109.311 194.471 109.525 195.552L111.214 208.469L111.327 209.052Z" fill="#2F2E41"/>
<path id="Vector_33" d="M136.116 307.204L135.071 305.633L127.446 294.187L127.293 293.963L129.651 281.723L130.384 277.902L131.986 269.588L131.522 250.555L131.188 237.09L131.139 234.977L129.448 229.82C128.647 227.409 127.36 225.188 125.666 223.295C123.973 221.401 121.909 219.876 119.603 218.813L108.226 213.601C106.887 212.991 105.36 212.939 103.983 213.455C102.605 213.971 101.488 215.014 100.879 216.354C100.828 216.465 100.781 216.579 100.737 216.694C99.1784 216.908 92.4122 218.046 86.6744 222.502C82.6547 225.562 79.8486 229.949 78.754 234.884C78.7431 234.922 78.7376 234.96 78.7267 234.999C77.9664 238.398 77.3975 243.762 77.031 251.031C76.7849 255.837 76.6299 261.468 76.5661 267.924C76.464 278.684 77.0689 289.44 78.3766 300.121C78.5024 301.139 78.6337 302.151 78.7705 303.169C78.8853 304.023 79.7058 304.839 80.4989 305.622C81.2264 306.339 81.9758 307.083 82.0797 307.757C82.1727 308.348 81.7953 308.966 81.3468 309.612C81.2921 309.694 81.2319 309.776 81.1772 309.858C80.6193 310.652 80.0449 311.479 80.1926 312.349C80.5372 314.309 80.7396 316.301 80.931 318.228C81.1448 320.881 81.5285 323.517 82.0797 326.121C82.2712 326.92 82.49 327.725 82.7361 328.53C83.3104 330.418 84.0051 332.301 84.6834 334.14C85.2686 335.739 85.8758 337.381 86.3899 339.001C86.4884 339.302 86.5814 339.598 86.6689 339.893L86.7127 340.047L86.8713 340.074H86.8822C87.0977 339.689 87.3545 339.33 87.648 339.001C87.6612 338.98 87.6779 338.962 87.6972 338.946C87.7738 338.853 87.8613 338.755 87.9598 338.651C89.1577 337.343 91.7613 334.994 97.4609 331.037C98.7353 330.155 100.163 329.197 101.76 328.146C107.618 324.309 115.801 319.312 127.233 312.858C130.099 311.238 133.175 309.525 136.461 307.718L136.116 307.204Z" fill="#6C63FF"/>
<path id="Vector_34" d="M197.471 427.617C196.143 426.282 194.563 425.223 192.823 424.503C191.084 423.782 189.218 423.413 187.336 423.418L181.39 418.908L180.608 418.311L175.313 420.468C177.162 421.283 179.032 422.077 180.909 422.844C186.778 425.241 192.771 427.383 198.888 429.27C198.458 428.684 197.984 428.131 197.471 427.617V427.617Z" fill="#2F2E41"/>
<path id="Vector_35" d="M262.821 171.675V8.599H257.12V171.675C249.33 172.386 242.088 175.985 236.814 181.765C231.54 187.546 228.616 195.091 228.615 202.918V211.476H248.568C248.567 214.502 249.766 217.405 251.903 219.546C254.04 221.687 256.94 222.891 259.964 222.893C262.988 222.895 265.889 221.694 268.028 219.555C270.168 217.417 271.371 214.515 271.372 211.489V211.476H291.326V202.918C291.325 195.091 288.401 187.546 283.127 181.766C277.853 175.985 270.61 172.386 262.821 171.675Z" fill="white"/>
<path id="Vector_36" d="M379.452 405.957C377.286 407.309 375.093 408.623 372.872 409.898V409.914L372.839 409.92L372.828 409.925L371.986 410.133L370.777 406.937L367.988 399.563L360.385 379.474L372.205 376.557L372.872 379.266L377.872 399.558L379.305 405.36L379.452 405.957Z" fill="#FFB6B6"/>
<path id="Vector_37" d="M349.306 275.592C350.368 277.318 352.062 278.56 354.027 279.053C355.992 279.547 358.071 279.252 359.822 278.232C360.174 278.019 360.508 277.777 360.82 277.508L384.362 291.028L383.34 277.149L361.14 266.438C359.932 265.224 358.356 264.445 356.658 264.224C354.96 264.002 353.237 264.351 351.759 265.215C350.066 266.232 348.847 267.88 348.369 269.797C347.891 271.713 348.193 273.742 349.209 275.435C349.241 275.488 349.273 275.54 349.306 275.592Z" fill="#FFB6B6"/>
<path id="Vector_38" d="M374.241 285.937L378.402 288.475L397.092 299.881C398.319 300.649 399.685 301.168 401.112 301.407C402.54 301.647 404 301.604 405.41 301.279C406.82 300.954 408.153 300.354 409.332 299.514C410.51 298.673 411.512 297.609 412.28 296.381L412.286 296.371C413.67 294.09 414.159 291.376 413.66 288.754L405.353 247.222C405.046 245.592 404.391 244.047 403.433 242.693C402.474 241.34 401.235 240.209 399.8 239.379C398.365 238.548 396.767 238.038 395.117 237.882C393.466 237.727 391.801 237.93 390.237 238.477C387.606 239.402 385.426 241.295 384.141 243.772C382.856 246.248 382.562 249.121 383.319 251.806L392.005 281.28L378.69 275.068L374.241 285.937Z" fill="#6C63FF"/>
<path id="Vector_39" d="M450.877 326.887C450.872 326.871 450.861 326.811 450.845 326.718L450.828 326.658C450.79 326.46 450.746 326.242 450.697 326.001C449.581 320.455 448.147 314.977 446.403 309.596C445.37 306.3 444.001 303.119 442.317 300.104C442.262 300.006 442.202 299.907 442.142 299.809L441.94 299.48L440.239 300.104L440.173 300.126L414.312 309.612L406.834 312.354L406.599 312.442L405.325 317.642L387.444 315.327L372.872 313.438L368.688 312.896C366.874 312.66 365.031 312.787 363.266 313.27C361.502 313.753 359.851 314.582 358.41 315.71C356.906 316.877 355.65 318.331 354.713 319.989C353.777 321.647 353.18 323.475 352.957 325.366C352.902 325.782 352.869 326.203 352.853 326.619L351.589 373.787V373.847L352.174 375.019L364.4 399.563H372.872L377.872 399.558H381.936L373.485 378.161L373.676 377.871C374.471 376.651 374.973 375.263 375.141 373.816C375.309 372.37 375.139 370.904 374.644 369.534L375.596 366.775C377.571 361.077 376.635 358.34 375.454 354.881C374.393 352.068 373.769 349.108 373.605 346.106L373.408 342.203C378.369 343.074 382.991 344.042 387.444 345.017C388.932 345.34 390.405 345.666 391.863 345.997C396.015 346.922 400.024 347.814 403.952 348.558C411.905 350.075 419.524 351 427.352 350.425C427.505 350.414 427.658 350.403 427.811 350.387C429.715 350.233 431.629 349.987 433.565 349.642C434.654 349.445 435.748 349.221 436.853 348.958C437.159 348.881 437.471 348.805 437.777 348.728C438.628 348.504 439.447 348.174 440.217 347.748C441.312 347.137 442.33 346.398 443.253 345.548C443.258 345.542 443.263 345.542 443.263 345.537C444.773 343.391 446.245 341.212 447.678 339.001C448.449 337.813 449.215 336.614 449.964 335.41C451.058 332.405 451.474 329.373 450.877 326.887Z" fill="#2F2E41"/>
<path id="Vector_40" d="M438.674 293.081C438.647 292.879 438.614 292.676 438.57 292.474C438.149 290.251 437.055 288.073 436 285.96C434.993 283.945 434.036 282.041 433.642 280.147C433.254 278.28 433.483 276.408 433.708 274.602C433.948 272.642 434.2 270.617 433.637 268.652C430.779 258.616 426.855 248.916 421.931 239.717C420.689 235.672 418.307 232.072 415.072 229.348C411.836 226.623 407.884 224.891 403.689 224.357C404.179 223.442 404.383 222.401 404.275 221.369C404.206 220.702 404.006 220.055 403.686 219.466C403.365 218.877 402.932 218.357 402.409 217.937C401.908 217.532 401.331 217.231 400.712 217.051C400.093 216.87 399.445 216.814 398.805 216.886L390.578 217.811C389.259 217.976 388.059 218.657 387.239 219.703C386.418 220.75 386.044 222.078 386.197 223.4C386.243 223.806 386.335 224.207 386.47 224.593C378.834 234.325 374.913 243.193 374.552 251.579V251.584C374.508 252.553 374.513 253.523 374.568 254.491C374.741 257.621 375.421 260.703 376.581 263.616C377.951 266.98 379.784 270.137 382.029 272.992C382.488 273.573 382.964 274.142 383.456 274.7C383.916 275.247 384.43 275.822 384.999 276.424L386.437 278.68L387.778 280.787L394.943 297.334L398.591 297.214L399.1 300.854L399.22 301.702L401.583 310.17L401.758 310.805L404.991 309.267L424.278 300.104L438.696 293.251L438.674 293.081Z" fill="#6C63FF"/>
<path id="Vector_41" opacity="0.2" d="M376.797 263.528C378.442 267.559 380.754 271.284 383.636 274.546C384.129 275.135 384.65 275.715 385.196 276.295L387.996 280.692C398.317 272.95 406.679 242.467 406.679 242.467L395.034 240.2L376.797 263.528Z" fill="black"/>
<g id="woman-arm">
<path id="Vector_42" d="M369.747 216.333C370.767 218.086 371.063 220.168 370.572 222.136C370.081 224.104 368.843 225.803 367.12 226.871C366.766 227.082 366.395 227.264 366.012 227.415L366.836 254.566L355.087 247.165L356.105 222.516C355.605 220.875 355.662 219.115 356.266 217.511C356.871 215.906 357.989 214.547 359.447 213.645C361.132 212.625 363.153 212.317 365.065 212.788C366.978 213.259 368.625 214.471 369.644 216.157C369.679 216.216 369.714 216.274 369.747 216.333Z" fill="#FFB6B6"/>
<path id="Vector_43" d="M367.869 244.317L354.948 246.156L355.503 272.933C355.536 274.843 356.055 276.713 357.013 278.366C357.971 280.019 359.336 281.399 360.977 282.375C362.981 283.555 365.315 284.051 367.626 283.789C369.938 283.526 372.101 282.519 373.79 280.919L404.295 251.556C406.442 249.518 407.726 246.735 407.885 243.779C408.043 240.822 407.064 237.918 405.148 235.662C403.27 233.438 400.587 232.051 397.688 231.807C394.789 231.563 391.912 232.482 389.69 234.361C389.603 234.434 389.517 234.509 389.432 234.585C389.131 234.855 388.844 235.141 388.573 235.441L368.43 258.63L367.869 244.317Z" fill="#6C63FF"/>
</g>
<path id="Vector_44" d="M379.781 405.273L379.305 405.36L372.872 406.548L370.777 406.937L367.479 407.544L368.649 412.268C370.055 411.507 371.445 410.724 372.828 409.925L372.839 409.92L372.872 409.914V409.898C375.093 408.628 377.286 407.314 379.452 405.957C379.606 405.864 379.759 405.771 379.912 405.667L379.781 405.273Z" fill="#2F2E41"/>
<path id="woman-leg2" d="M329.53 410.977L322.083 407.413L332.312 376.265L343.303 381.525L329.53 410.977Z" fill="#FFB6B6"/>
<path id="Vector_45" d="M451.058 318.025C450.976 317.675 450.872 317.319 450.763 316.974C449.894 314.363 448.883 311.801 447.732 309.3C446.441 306.454 444.893 303.405 443.05 300.104C442.159 298.506 441.199 296.844 440.173 295.117C439.659 294.253 439.125 293.371 438.57 292.474C438.549 292.432 438.525 292.392 438.499 292.353L438.341 292.09L412.753 295.517L403.224 296.792L402.655 301.544L402.519 302.721C402.513 302.721 402.513 302.721 402.519 302.726L402.136 305.934V305.939L401.627 310.176L401.583 310.17L387.444 308.337L372.872 306.448L365.045 305.436C363.231 305.199 361.388 305.326 359.624 305.809C357.859 306.292 356.208 307.121 354.767 308.249C353.263 309.416 352.007 310.871 351.07 312.528C350.134 314.186 349.537 316.014 349.314 317.905C349.264 318.288 349.232 318.682 349.215 319.071L341.831 336.582C337.412 347.054 334.598 358.134 333.484 369.446L328.069 386.771L328.84 386.842L340.316 387.91L343.346 388.194L350.019 378.445C350.78 377.334 351.502 376.19 352.174 375.019C353.282 373.106 354.267 371.124 355.123 369.085L369.557 334.71C370.673 334.901 371.778 335.084 372.872 335.257C377.932 336.078 382.789 336.748 387.444 337.266C402.579 338.957 415.685 339.089 427.352 337.654C430.628 337.255 433.795 336.729 436.853 336.078C437.974 335.843 439.081 335.589 440.173 335.317C440.43 335.257 440.682 335.197 440.933 335.131C443.194 334.548 445.272 333.406 446.978 331.811C448.684 330.216 449.962 328.218 450.697 326.001C451.574 323.431 451.699 320.664 451.058 318.025Z" fill="#2F2E41"/>
<path id="woman-leg1" d="M331.909 405.891L323.852 402.027L322.588 401.419L320.57 406.378L306.479 409.482C305.783 409.635 305.153 410.007 304.683 410.543C304.212 411.079 303.925 411.752 303.864 412.463C303.803 413.175 303.971 413.887 304.343 414.496C304.715 415.105 305.272 415.578 305.932 415.848L319.7 421.47L324.07 417.534L322.998 422.816L328.184 424.935L333.867 406.833L331.909 405.891Z" fill="#2F2E41"/>
<g id="woman-head">
<path id="Vector_46" d="M396.647 214.642C406.422 214.642 414.346 206.535 414.346 196.535C414.346 186.534 406.422 178.427 396.647 178.427C386.871 178.427 378.947 186.534 378.947 196.535C378.947 206.535 386.871 214.642 396.647 214.642Z" fill="#FFB6B6"/>
<path id="Vector_47" d="M444.009 188.682C441 185.171 439.57 180.512 437.165 176.526C434.76 172.539 430.574 168.97 426.153 169.898C423.105 170.538 420.749 173.229 419.557 176.23C418.364 179.231 418.141 182.54 417.932 185.782C418.006 179.12 413.62 172.661 407.578 170.535C401.536 168.409 394.305 170.781 390.509 176.133C388.852 174.596 386.69 173.721 384.431 173.674C382.173 173.626 379.975 174.41 378.256 175.875C374.86 178.913 374.108 184.694 376.606 188.568C379.103 192.442 384.512 193.885 388.48 191.737L389.884 193.028C389.094 195.793 390.625 199.058 393.2 200.098C395.288 200.942 398.235 200.802 399.016 202.994C399.562 204.526 398.542 206.162 397.456 207.339C396.371 208.516 395.083 209.732 394.952 211.361C394.755 213.819 397.293 215.541 399.601 216.059C405.164 217.31 411.338 214.731 414.544 209.818C414.606 209.723 414.673 209.628 414.746 209.533C416.545 207.231 417.856 204.586 418.599 201.759C419.342 198.932 419.501 195.984 419.067 193.094C418.887 191.958 419.069 191.113 419.851 190.844C423.233 189.682 432.708 192.122 435.575 194.327C438.443 196.532 440.739 199.45 443.501 201.797C446.263 204.145 449.783 205.955 453.29 205.316C456.098 204.804 458.488 202.763 460.095 200.302C461.702 197.841 462.627 194.972 463.456 192.12C457.245 195.711 448.744 194.208 444.009 188.682Z" fill="#2F2E41"/>
</g>
<path id="Vector_48" d="M387.442 296.615V400.727C385.462 402.09 383.456 403.417 381.425 404.707V303.518C381.425 300.584 380.44 298.203 379.232 298.197H288.164C286.95 298.203 285.971 300.584 285.966 303.518V437.878C284.751 437.998 283.537 438.113 282.323 438.212C281.819 438.256 281.311 438.294 280.807 438.332C280.518 437.796 280.233 437.254 279.949 436.706V296.615C279.949 295.805 279.982 294.989 280.036 294.185C280.529 287.353 282.974 282.361 285.834 282.35H381.556C381.903 282.353 382.245 282.425 382.563 282.564C384.959 283.582 386.851 288.049 387.327 293.823C387.403 294.743 387.447 295.679 387.442 296.615Z" fill="#E4E4E4"/>
<path id="Vector_49" d="M241.326 296.615V437.462C241.244 437.593 241.162 437.719 241.08 437.85C239.023 437.642 236.976 437.403 234.938 437.133V303.518C234.938 300.584 233.893 298.203 232.607 298.197H135.95C134.665 298.203 133.62 300.584 133.62 303.518V396.277C131.459 394.684 129.33 393.051 127.231 391.378V296.615C127.231 295.805 127.264 294.989 127.324 294.185C127.844 287.353 130.442 282.361 133.483 282.35H235.074C235.44 282.351 235.803 282.424 236.141 282.564C238.684 283.582 240.697 288.049 241.206 293.823C241.288 294.743 241.326 295.679 241.326 296.615Z" fill="#E4E4E4"/>
<path id="Vector_50" d="M208.933 249.809L215.268 277.7L219.316 282.137H222.236L210.201 231.425L209.605 240.04V240.046L208.933 249.809Z" fill="#3F3D56"/>
<path id="Vector_51" d="M230.028 283.562C230.009 283.519 229.985 283.479 229.957 283.442C229.898 283.31 229.815 283.191 229.71 283.092L228.972 282.353L225.088 278.461C224.803 278.182 224.421 278.025 224.022 278.023H224.005L221.265 278.039L218.907 278.056L215.615 278.078L193.188 278.22L178.447 278.313C178.048 278.318 177.667 278.48 177.385 278.763C177.104 279.047 176.945 279.43 176.943 279.829C176.945 280.05 176.994 280.268 177.085 280.47L177.37 281.077L177.966 282.353L178.743 284.022L179.125 284.843C179.248 285.105 179.442 285.326 179.685 285.481C179.928 285.636 180.21 285.719 180.498 285.719H228.638C228.892 285.714 229.14 285.647 229.361 285.524C229.582 285.4 229.77 285.224 229.907 285.011C230.044 284.798 230.127 284.554 230.148 284.302C230.169 284.049 230.128 283.795 230.028 283.562H230.028Z" fill="#3F3D56"/>
<path id="Vector_52" opacity="0.17" d="M178.743 284.021L179.123 284.845C179.247 285.105 179.442 285.326 179.685 285.48C179.928 285.635 180.21 285.718 180.498 285.72H228.64C228.893 285.715 229.141 285.648 229.362 285.525C229.584 285.401 229.771 285.225 229.908 285.012C230.045 284.799 230.128 284.556 230.149 284.303C230.169 284.051 230.128 283.797 230.027 283.564C230.01 283.521 229.987 283.48 229.957 283.444L178.743 284.021Z" fill="black"/>
<path id="Vector_53" opacity="0.17" d="M209.605 240.04V240.046L219.911 282.137H222.236L210.201 231.425L209.605 240.04Z" fill="black"/>
<path id="Vector_54" d="M225.772 122.249L224.262 122.046C223.848 121.992 223.429 122.104 223.097 122.358L222.195 123.054L212.147 135.632C211.815 135.889 211.599 136.267 211.545 136.683L210.982 140.964L196.957 247.753C196.907 248.148 197.007 248.548 197.236 248.875L203.844 267.102L204.04 267.387L204.467 267.995C204.687 268.303 205.008 268.524 205.375 268.619L206.332 268.86C206.55 268.914 206.776 268.922 206.997 268.882C207.218 268.843 207.427 268.756 207.612 268.63C207.798 268.505 207.955 268.341 208.072 268.151C208.189 267.96 208.263 267.746 208.291 267.524L210.003 254.507V254.502L211.097 246.149L212.021 239.104V239.098L227.14 124.022C227.194 123.607 227.082 123.187 226.827 122.854C226.572 122.522 226.195 122.305 225.78 122.25L225.772 122.249Z" fill="#3F3D56"/>
<path id="Vector_55" opacity="0.17" d="M222.193 123.054L203.843 267.105L204.042 267.387L204.467 267.993C204.686 268.302 205.008 268.523 205.375 268.617L206.334 268.858C206.551 268.912 206.777 268.92 206.997 268.88C207.217 268.841 207.426 268.755 207.611 268.629C207.796 268.503 207.952 268.34 208.069 268.149C208.186 267.959 208.262 267.746 208.292 267.524L227.138 124.024C227.193 123.607 227.08 123.186 226.824 122.853C226.568 122.519 226.191 122.301 225.774 122.246L224.261 122.047C224.055 122.02 223.846 122.033 223.646 122.087C223.446 122.141 223.259 122.234 223.095 122.361L222.193 123.054Z" fill="black"/>
<path id="Vector_56" d="M221.652 127.174L211.914 141.083L200.34 229.212L206.615 241.67L221.652 127.174Z" fill="#6C63FF"/>
<path id="Vector_57" d="M316.509 249.809L310.174 277.7L306.127 282.137H303.206L315.242 231.425L315.837 240.04V240.046L316.509 249.809Z" fill="#3F3D56"/>
<path id="Vector_58" d="M346.994 278.313L309.832 278.077L306.534 278.056L304.182 278.039L301.442 278.023H301.42C301.022 278.024 300.641 278.181 300.359 278.461L295.731 283.092C295.629 283.193 295.545 283.311 295.485 283.442C295.456 283.479 295.432 283.519 295.414 283.562C295.314 283.795 295.272 284.049 295.293 284.302C295.314 284.554 295.397 284.798 295.534 285.011C295.672 285.224 295.859 285.4 296.081 285.524C296.302 285.647 296.55 285.714 296.803 285.719H344.943C345.232 285.718 345.515 285.635 345.759 285.48C346.003 285.325 346.198 285.104 346.322 284.843L346.699 284.022L347.476 282.353L348.356 280.47C348.45 280.269 348.499 280.05 348.499 279.829C348.496 279.43 348.338 279.047 348.056 278.763C347.775 278.48 347.394 278.318 346.994 278.313V278.313Z" fill="#3F3D56"/>
<path id="Vector_59" opacity="0.17" d="M346.699 284.021L346.319 284.845C346.195 285.105 346.001 285.326 345.758 285.48C345.514 285.635 345.233 285.718 344.944 285.72H296.802C296.549 285.715 296.301 285.648 296.08 285.525C295.859 285.401 295.671 285.225 295.534 285.012C295.397 284.799 295.314 284.556 295.294 284.303C295.273 284.051 295.315 283.797 295.415 283.564C295.432 283.521 295.456 283.48 295.485 283.444L346.699 284.021Z" fill="black"/>
<path id="Vector_60" opacity="0.17" d="M315.837 240.04V240.046L305.531 282.137H303.206L315.242 231.425L315.837 240.04Z" fill="black"/>
<path id="Vector_61" d="M328.485 247.753L313.897 136.683C313.843 136.267 313.627 135.889 313.295 135.632L303.252 123.054L302.35 122.358C302.015 122.105 301.595 121.993 301.179 122.046L299.67 122.249C299.253 122.303 298.875 122.52 298.619 122.852C298.362 123.185 298.248 123.606 298.302 124.022V124.022L313.421 239.104V239.109L314.345 246.149L315.444 254.507V254.518L317.151 267.524C317.178 267.747 317.253 267.961 317.371 268.152C317.49 268.343 317.648 268.506 317.835 268.63C318.019 268.756 318.228 268.842 318.447 268.882C318.667 268.922 318.893 268.914 319.109 268.86L320.066 268.619C320.433 268.524 320.755 268.303 320.974 267.995L321.401 267.387L321.598 267.102L328.206 248.875C328.437 248.55 328.537 248.148 328.485 247.753V247.753Z" fill="#3F3D56"/>
<path id="Vector_62" opacity="0.17" d="M303.25 123.054L321.6 267.105L321.4 267.387L320.975 267.993C320.756 268.302 320.434 268.523 320.067 268.617L319.108 268.858C318.891 268.912 318.665 268.92 318.445 268.88C318.225 268.841 318.016 268.755 317.831 268.629C317.647 268.503 317.49 268.34 317.373 268.149C317.256 267.959 317.18 267.746 317.151 267.524L298.304 124.024C298.25 123.607 298.363 123.186 298.618 122.853C298.874 122.519 299.252 122.301 299.668 122.246L301.182 122.047C301.387 122.02 301.596 122.033 301.796 122.087C301.996 122.141 302.183 122.234 302.347 122.361L303.25 123.054Z" fill="black"/>
<path id="Vector_63" d="M303.791 127.174L313.528 141.083L325.103 229.212L318.828 241.67L303.791 127.174Z" fill="#6C63FF"/>
<path id="Vector_64" d="M122.797 304.855C122.799 305.131 122.775 305.406 122.726 305.676C122.704 305.808 122.677 305.934 122.644 306.06C122.378 307.077 121.782 307.978 120.949 308.621C120.117 309.264 119.095 309.612 118.044 309.612H97.4608V358.74C97.4618 359.778 97.1216 360.788 96.4927 361.613C96.0223 361.061 95.5573 360.508 95.0979 359.949C92.6365 357.004 90.2571 353.994 87.9598 350.918V309.612H78.7705C77.5452 309.611 76.3675 309.137 75.4836 308.288C74.5996 307.439 74.0778 306.28 74.0269 305.055C73.9761 303.83 74.4002 302.633 75.2108 301.713C76.0213 300.794 77.1556 300.223 78.3766 300.121C78.5079 300.11 78.6392 300.104 78.7705 300.104H118.044C119.304 300.104 120.512 300.604 121.403 301.495C122.295 302.386 122.796 303.595 122.797 304.855V304.855Z" fill="#3F3D56"/>
<path id="Vector_65" d="M450.784 304.855C450.785 305.818 450.493 306.759 449.948 307.552C449.403 308.346 448.631 308.955 447.732 309.3C447.306 309.463 446.858 309.563 446.403 309.596C446.283 309.607 446.157 309.612 446.037 309.612H436.853V354.202C436.716 354.382 436.574 354.563 436.432 354.744C434.271 357.508 432.045 360.218 429.753 362.872C429.021 362.46 428.413 361.859 427.991 361.133C427.569 360.406 427.348 359.58 427.352 358.74V309.612H406.763C406.156 309.614 405.554 309.497 404.991 309.267C404.282 308.984 403.653 308.533 403.156 307.954C402.658 307.374 402.309 306.683 402.136 305.939V305.934C401.881 304.853 402.016 303.716 402.519 302.726C402.513 302.721 402.513 302.721 402.519 302.721C402.736 302.285 403.02 301.886 403.361 301.538C403.804 301.084 404.333 300.724 404.917 300.477C405.502 300.231 406.129 300.104 406.763 300.104H446.037C446.66 300.104 447.277 300.227 447.853 300.465C448.429 300.704 448.953 301.054 449.394 301.495C449.834 301.936 450.184 302.46 450.423 303.036C450.661 303.612 450.784 304.23 450.784 304.854L450.784 304.855Z" fill="#3F3D56"/>
<path id="Vector_66" d="M450.47 213.258C448.515 213.258 446.58 213.643 444.774 214.392C442.967 215.14 441.326 216.238 439.944 217.621C438.562 219.004 437.465 220.646 436.717 222.454C435.969 224.261 435.584 226.198 435.584 228.154V228.155C435.585 231.61 436.786 234.958 438.981 237.625C441.177 240.293 444.23 242.113 447.62 242.775V267.14H457.121V213.258H450.47Z" fill="#3F3D56"/>
<g id="man-left-arm">
<path id="Vector_67" d="M190.572 267.653C189.624 267.097 188.566 266.755 187.472 266.652C186.378 266.548 185.274 266.686 184.24 267.056C183.205 267.426 182.263 268.018 181.482 268.791C180.7 269.564 180.098 270.5 179.717 271.531L162.553 272.201L160.241 280.201L184.641 281.451C186.415 281.977 188.32 281.834 189.995 281.048C191.67 280.262 192.999 278.889 193.73 277.188C194.461 275.488 194.544 273.578 193.961 271.82C193.379 270.063 192.173 268.58 190.572 267.653H190.572Z" fill="#9E616A"/>
<path id="Vector_68" d="M176.473 282.314L158.843 282.094L156.611 282.064L120.741 281.612C120.741 281.612 111 272.312 102.519 262.737L103.707 254.132C104.867 245.687 109.053 237.952 115.487 232.365C127.635 240.488 134.68 256.567 134.68 256.567L146.492 261.856C154.804 262.228 162.905 264.602 170.105 268.777L173.989 271.029L176.473 282.314Z" fill="#6C63FF"/>
</g>
<path id="Vector_69" d="M231.865 436.709H295.458C291.12 437.344 286.742 437.845 282.325 438.214H244.999C240.579 437.847 236.201 437.345 231.865 436.709Z" fill="#CCCCCC"/>
<path id="Vector_70" d="M244.651 404.671C245.882 393.555 252.608 382.529 263.136 378.776C259.117 390.254 259.286 402.785 263.611 414.15C265.295 418.528 267.623 423.221 266.153 427.675C265.239 430.446 262.941 432.588 260.358 433.942C257.774 435.297 254.896 435.964 252.054 436.619L251.499 437.091C246.838 426.926 243.42 415.786 244.651 404.671Z" fill="#CCCCCC"/>
<path id="Vector_71" d="M263.243 378.985C257.177 385.973 253.465 394.696 252.634 403.916C252.421 405.897 252.52 407.9 252.929 409.851C253.389 411.738 254.346 413.468 255.7 414.86C256.936 416.183 258.354 417.393 259.247 418.995C259.693 419.821 259.958 420.732 260.027 421.668C260.095 422.605 259.965 423.545 259.645 424.427C258.905 426.647 257.412 428.468 255.89 430.198C254.2 432.119 252.415 434.087 251.72 436.613C251.635 436.919 251.166 436.77 251.25 436.465C252.46 432.07 256.673 429.527 258.645 425.557C259.566 423.704 259.934 421.563 259.022 419.633C258.225 417.945 256.764 416.695 255.5 415.366C254.16 414.028 253.167 412.381 252.609 410.57C252.102 408.646 251.925 406.65 252.087 404.668C252.38 400.198 253.374 395.803 255.032 391.642C256.897 386.883 259.563 382.479 262.912 378.619C263.12 378.381 263.449 378.748 263.243 378.985H263.243Z" fill="white"/>
<path id="Vector_72" d="M252.727 400.931C251.2 400.582 249.847 399.701 248.91 398.445C247.972 397.19 247.511 395.642 247.609 394.077C247.614 394.014 247.643 393.954 247.69 393.912C247.738 393.869 247.8 393.846 247.864 393.849C247.928 393.851 247.988 393.878 248.032 393.924C248.077 393.97 248.101 394.032 248.101 394.095C248.008 395.552 248.437 396.994 249.313 398.161C250.188 399.329 251.452 400.144 252.875 400.461C253.185 400.531 253.035 401 252.727 400.931H252.727Z" fill="white"/>
<path id="Vector_73" d="M254.985 414.271C257.712 412.592 259.706 409.946 260.57 406.861C260.655 406.555 261.124 406.704 261.039 407.009C260.134 410.218 258.054 412.967 255.212 414.709C254.941 414.874 254.715 414.436 254.985 414.271Z" fill="white"/>
<path id="Vector_74" d="M257.36 387.344C257.923 387.603 258.541 387.717 259.159 387.677C259.776 387.638 260.375 387.445 260.9 387.117C261.168 386.948 261.394 387.386 261.127 387.554C260.545 387.914 259.884 388.126 259.202 388.171C258.52 388.217 257.837 388.094 257.212 387.814C257.151 387.793 257.101 387.749 257.071 387.691C257.041 387.634 257.034 387.567 257.052 387.505C257.072 387.443 257.115 387.391 257.173 387.361C257.231 387.331 257.298 387.325 257.361 387.344L257.36 387.344Z" fill="white"/>
<path id="Vector_75" d="M295.636 398.166C295.472 398.276 295.307 398.387 295.142 398.501C292.934 399.997 290.852 401.669 288.915 403.502C288.763 403.641 288.611 403.785 288.463 403.928C283.843 408.394 280.092 413.68 277.401 419.516C276.332 421.839 275.441 424.24 274.736 426.699C273.763 430.094 272.977 433.853 270.998 436.647C270.795 436.94 270.574 437.221 270.336 437.488L252.117 437.731C252.076 437.711 252.034 437.695 251.992 437.675L251.265 437.718C251.293 437.588 251.324 437.455 251.351 437.326C251.367 437.25 251.387 437.175 251.402 437.1C251.414 437.05 251.426 437 251.434 436.954C251.438 436.937 251.442 436.921 251.446 436.908C251.453 436.862 251.465 436.821 251.473 436.779C251.646 436.032 251.824 435.285 252.008 434.538C252.008 434.533 252.008 434.533 252.012 434.529C253.36 428.822 255.38 423.296 258.028 418.065C258.11 417.91 258.191 417.751 258.28 417.596C259.508 415.279 260.923 413.068 262.511 410.982C263.385 409.843 264.315 408.749 265.299 407.704C267.846 405.009 270.801 402.731 274.055 400.955C280.544 397.415 288.091 395.991 295.102 398.007C295.282 398.058 295.457 398.11 295.636 398.166Z" fill="#CCCCCC"/>
<path id="Vector_76" d="M295.599 398.398C286.551 400.323 278.338 405.051 272.129 411.912C270.766 413.366 269.64 415.025 268.793 416.829C268.025 418.613 267.749 420.57 267.992 422.497C268.183 424.299 268.587 426.119 268.337 427.936C268.195 428.864 267.859 429.752 267.351 430.54C266.842 431.329 266.173 432.002 265.386 432.513C263.46 433.84 261.172 434.394 258.916 434.858C256.412 435.374 253.802 435.87 251.727 437.468C251.475 437.661 251.19 437.26 251.441 437.066C255.051 434.286 259.945 434.794 263.909 432.813C265.758 431.888 267.34 430.4 267.773 428.31C268.152 426.482 267.737 424.604 267.528 422.781C267.263 420.905 267.461 418.992 268.105 417.21C268.858 415.368 269.917 413.668 271.239 412.183C274.163 408.791 277.6 405.88 281.427 403.557C285.78 400.881 290.558 398.97 295.554 397.907C295.864 397.841 295.906 398.333 295.599 398.398H295.599Z" fill="white"/>
<path id="Vector_77" d="M273.998 409.585C272.989 408.386 272.439 406.868 272.446 405.3C272.453 403.733 273.016 402.219 274.035 401.029C274.242 400.789 274.625 401.1 274.418 401.34C273.467 402.446 272.942 403.857 272.939 405.316C272.935 406.776 273.453 408.188 274.399 409.299C274.605 409.541 274.202 409.825 273.998 409.585Z" fill="white"/>
<path id="Vector_78" d="M267.775 421.597C270.963 421.899 274.147 420.988 276.693 419.045C276.945 418.852 277.23 419.254 276.978 419.446C274.325 421.463 271.01 422.404 267.694 422.083C267.378 422.052 267.461 421.566 267.775 421.597V421.597Z" fill="white"/>
<path id="Vector_79" d="M285.872 401.528C286.166 402.073 286.591 402.537 287.108 402.878C287.625 403.218 288.218 403.425 288.835 403.479C289.151 403.506 289.068 403.992 288.753 403.965C288.072 403.902 287.417 403.673 286.845 403.298C286.273 402.923 285.801 402.414 285.471 401.814C285.435 401.76 285.421 401.695 285.432 401.631C285.443 401.567 285.477 401.51 285.529 401.47C285.582 401.433 285.648 401.418 285.712 401.429C285.777 401.439 285.834 401.475 285.872 401.528V401.528Z" fill="white"/>
<path id="cloud1" d="M272.373 75.9218C238.29 84.8934 200.527 90.3508 162.129 91.8451C156.501 92.1519 150.86 92.1135 145.238 91.7302C132.881 90.6901 122.297 86.8037 110.51 84.6799C104.843 83.6618 98.5308 82.9173 92.8258 81.8171C94.1441 80.1804 95.486 78.5638 96.8516 76.9673C109.153 78.0073 121.646 81.412 134.096 82.994C155.258 85.6871 178.97 82.6819 195.013 75.2704C202.797 71.6741 208.759 67.1856 216.515 63.5729C217.57 63.0309 218.713 62.6806 219.89 62.5383C222.346 62.3139 224.501 63.3047 226.257 64.1914C239.27 70.7655 258.162 76.1079 275.699 73.1685C277.006 74.1921 274.523 75.358 272.373 75.9218Z" fill="white"/>
<path id="Vector_80" d="M349.974 99.0569C350.134 99.0277 350.294 99.0048 350.454 98.9771C349.781 98.5592 349.146 98.081 348.559 97.5482L349.974 99.0569Z" fill="white"/>
<path id="cloud2" d="M454.95 112.027C447.626 112.613 440.264 113.049 432.863 113.335C427.236 113.639 421.595 113.601 415.972 113.22C403.616 112.175 393.032 108.294 381.244 106.17C370.442 104.227 357.314 103.291 350.455 98.9775C368.182 95.9067 386.55 102.158 404.83 104.484C419.617 106.304 434.606 105.563 449.141 102.295C451.165 105.48 453.102 108.725 454.95 112.027Z" fill="white"/>
</g>
<defs>
<linearGradient id="paint0_linear" x1="263.66" y1="3.05176e-05" x2="263.66" y2="439" gradientUnits="userSpaceOnUse">
<stop stop-color="#F8E4EB"/>
<stop offset="1" stop-color="#F59CBB" stop-opacity="0.66"/>
</linearGradient>
<clipPath id="clip0">
<rect width="483" height="439" fill="white"/>
</clipPath>
</defs>
</svg>
